<?xml version="1.0" encoding="utf-8" standalone="no"?>
<!DOCTYPE svg PUBLIC "-//W3C//DTD SVG 1.1//EN"
  "http://www.w3.org/Graphics/SVG/1.1/DTD/svg11.dtd">
<svg xmlns:xlink="http://www.w3.org/1999/xlink" width="641.99952pt" height="497.99952pt" viewBox="0 0 641.99952 497.99952" xmlns="http://www.w3.org/2000/svg" version="1.1">
 <metadata>
  <rdf:RDF xmlns:dc="http://purl.org/dc/elements/1.1/" xmlns:cc="http://creativecommons.org/ns#" xmlns:rdf="http://www.w3.org/1999/02/22-rdf-syntax-ns#">
   <cc:Work>
    <dc:type rdf:resource="http://purl.org/dc/dcmitype/StillImage"/>
    <dc:date>2025-03-11T12:35:11.848725</dc:date>
    <dc:format>image/svg+xml</dc:format>
    <dc:creator>
     <cc:Agent>
      <dc:title>Matplotlib v3.9.1, https://matplotlib.org/</dc:title>
     </cc:Agent>
    </dc:creator>
   </cc:Work>
  </rdf:RDF>
 </metadata>
 <defs>
  <style type="text/css">*{stroke-linejoin: round; stroke-linecap: butt}</style>
 </defs>
 <g id="figure_1">
  <g id="patch_1">
   <path d="M 0 497.99952 
L 641.99952 497.99952 
L 641.99952 -0 
L 0 -0 
z
" style="fill: #f6efe6"/>
  </g>
  <g id="axes_1">
   <g id="patch_2">
    <path d="M 91.196875 227.38577 
L 605.99952 227.38577 
L 605.99952 60.23625 
L 91.196875 60.23625 
z
" style="fill: #f6efe6"/>
   </g>
   <g id="patch_3">
    <path d="M 114.596995 227.38577 
L 130.328168 227.38577 
L 130.328168 227.38577 
L 114.596995 227.38577 
z
" clip-path="url(#pc1f80bf913)" style="fill: #ff6f61"/>
   </g>
   <g id="patch_4">
    <path d="M 134.260962 227.38577 
L 149.992135 227.38577 
L 149.992135 227.38577 
L 134.260962 227.38577 
z
" clip-path="url(#pc1f80bf913)" style="fill: #ff6f61"/>
   </g>
   <g id="patch_5">
    <path d="M 153.924928 227.38577 
L 169.656102 227.38577 
L 169.656102 227.38577 
L 153.924928 227.38577 
z
" clip-path="url(#pc1f80bf913)" style="fill: #ff6f61"/>
   </g>
   <g id="patch_6">
    <path d="M 173.588895 227.38577 
L 189.320068 227.38577 
L 189.320068 227.38577 
L 173.588895 227.38577 
z
" clip-path="url(#pc1f80bf913)" style="fill: #ff6f61"/>
   </g>
   <g id="patch_7">
    <path d="M 193.252862 227.38577 
L 208.984035 227.38577 
L 208.984035 227.38577 
L 193.252862 227.38577 
z
" clip-path="url(#pc1f80bf913)" style="fill: #ff6f61"/>
   </g>
   <g id="patch_8">
    <path d="M 212.916828 227.38577 
L 228.648001 227.38577 
L 228.648001 227.38577 
L 212.916828 227.38577 
z
" clip-path="url(#pc1f80bf913)" style="fill: #ff6f61"/>
   </g>
   <g id="patch_9">
    <path d="M 232.580795 227.38577 
L 248.311968 227.38577 
L 248.311968 227.38577 
L 232.580795 227.38577 
z
" clip-path="url(#pc1f80bf913)" style="fill: #ff6f61"/>
   </g>
   <g id="patch_10">
    <path d="M 252.244761 227.38577 
L 267.975935 227.38577 
L 267.975935 227.38577 
L 252.244761 227.38577 
z
" clip-path="url(#pc1f80bf913)" style="fill: #ff6f61"/>
   </g>
   <g id="patch_11">
    <path d="M 271.908728 227.38577 
L 287.639901 227.38577 
L 287.639901 227.38577 
L 271.908728 227.38577 
z
" clip-path="url(#pc1f80bf913)" style="fill: #ff6f61"/>
   </g>
   <g id="patch_12">
    <path d="M 291.572694 227.38577 
L 307.303868 227.38577 
L 307.303868 227.38577 
L 291.572694 227.38577 
z
" clip-path="url(#pc1f80bf913)" style="fill: #ff6f61"/>
   </g>
   <g id="patch_13">
    <path d="M 311.236661 227.38577 
L 326.967834 227.38577 
L 326.967834 227.38577 
L 311.236661 227.38577 
z
" clip-path="url(#pc1f80bf913)" style="fill: #ff6f61"/>
   </g>
   <g id="patch_14">
    <path d="M 330.900628 227.38577 
L 346.631801 227.38577 
L 346.631801 227.38577 
L 330.900628 227.38577 
z
" clip-path="url(#pc1f80bf913)" style="fill: #ff6f61"/>
   </g>
   <g id="patch_15">
    <path d="M 350.564594 227.38577 
L 366.295767 227.38577 
L 366.295767 227.38577 
L 350.564594 227.38577 
z
" clip-path="url(#pc1f80bf913)" style="fill: #ff6f61"/>
   </g>
   <g id="patch_16">
    <path d="M 370.228561 227.38577 
L 385.959734 227.38577 
L 385.959734 227.38577 
L 370.228561 227.38577 
z
" clip-path="url(#pc1f80bf913)" style="fill: #ff6f61"/>
   </g>
   <g id="patch_17">
    <path d="M 389.892527 227.38577 
L 405.623701 227.38577 
L 405.623701 227.38577 
L 389.892527 227.38577 
z
" clip-path="url(#pc1f80bf913)" style="fill: #ff6f61"/>
   </g>
   <g id="patch_18">
    <path d="M 409.556494 227.38577 
L 425.287667 227.38577 
L 425.287667 227.38577 
L 409.556494 227.38577 
z
" clip-path="url(#pc1f80bf913)" style="fill: #ff6f61"/>
   </g>
   <g id="patch_19">
    <path d="M 429.22046 227.38577 
L 444.951634 227.38577 
L 444.951634 82.038361 
L 429.22046 82.038361 
z
" clip-path="url(#pc1f80bf913)" style="fill: #ff6f61"/>
   </g>
   <g id="patch_20">
    <path d="M 448.884427 227.38577 
L 464.6156 227.38577 
L 464.6156 227.38577 
L 448.884427 227.38577 
z
" clip-path="url(#pc1f80bf913)" style="fill: #ff6f61"/>
   </g>
   <g id="patch_21">
    <path d="M 468.548394 227.38577 
L 484.279567 227.38577 
L 484.279567 227.38577 
L 468.548394 227.38577 
z
" clip-path="url(#pc1f80bf913)" style="fill: #ff6f61"/>
   </g>
   <g id="patch_22">
    <path d="M 488.21236 227.38577 
L 503.943533 227.38577 
L 503.943533 213.820012 
L 488.21236 213.820012 
z
" clip-path="url(#pc1f80bf913)" style="fill: #ff6f61"/>
   </g>
   <g id="patch_23">
    <path d="M 507.876327 227.38577 
L 523.6075 227.38577 
L 523.6075 227.38577 
L 507.876327 227.38577 
z
" clip-path="url(#pc1f80bf913)" style="fill: #ff6f61"/>
   </g>
   <g id="patch_24">
    <path d="M 527.540293 227.38577 
L 543.271467 227.38577 
L 543.271467 227.38577 
L 527.540293 227.38577 
z
" clip-path="url(#pc1f80bf913)" style="fill: #ff6f61"/>
   </g>
   <g id="patch_25">
    <path d="M 547.20426 227.38577 
L 562.935433 227.38577 
L 562.935433 227.38577 
L 547.20426 227.38577 
z
" clip-path="url(#pc1f80bf913)" style="fill: #ff6f61"/>
   </g>
   <g id="patch_26">
    <path d="M 566.868227 227.38577 
L 582.5994 227.38577 
L 582.5994 227.38577 
L 566.868227 227.38577 
z
" clip-path="url(#pc1f80bf913)" style="fill: #ff6f61"/>
   </g>
   <g id="patch_27">
    <path d="M 114.596995 227.38577 
L 130.328168 227.38577 
L 130.328168 227.38577 
L 114.596995 227.38577 
z
" clip-path="url(#pc1f80bf913)" style="fill: #ff6f61"/>
   </g>
   <g id="patch_28">
    <path d="M 134.260962 227.38577 
L 149.992135 227.38577 
L 149.992135 227.38577 
L 134.260962 227.38577 
z
" clip-path="url(#pc1f80bf913)" style="fill: #ff6f61"/>
   </g>
   <g id="patch_29">
    <path d="M 153.924928 227.38577 
L 169.656102 227.38577 
L 169.656102 227.38577 
L 153.924928 227.38577 
z
" clip-path="url(#pc1f80bf913)" style="fill: #ff6f61"/>
   </g>
   <g id="patch_30">
    <path d="M 173.588895 227.38577 
L 189.320068 227.38577 
L 189.320068 227.38577 
L 173.588895 227.38577 
z
" clip-path="url(#pc1f80bf913)" style="fill: #ff6f61"/>
   </g>
   <g id="patch_31">
    <path d="M 193.252862 227.38577 
L 208.984035 227.38577 
L 208.984035 227.38577 
L 193.252862 227.38577 
z
" clip-path="url(#pc1f80bf913)" style="fill: #ff6f61"/>
   </g>
   <g id="patch_32">
    <path d="M 212.916828 227.38577 
L 228.648001 227.38577 
L 228.648001 227.38577 
L 212.916828 227.38577 
z
" clip-path="url(#pc1f80bf913)" style="fill: #ff6f61"/>
   </g>
   <g id="patch_33">
    <path d="M 232.580795 227.38577 
L 248.311968 227.38577 
L 248.311968 227.38577 
L 232.580795 227.38577 
z
" clip-path="url(#pc1f80bf913)" style="fill: #ff6f61"/>
   </g>
   <g id="patch_34">
    <path d="M 252.244761 227.38577 
L 267.975935 227.38577 
L 267.975935 227.38577 
L 252.244761 227.38577 
z
" clip-path="url(#pc1f80bf913)" style="fill: #ff6f61"/>
   </g>
   <g id="patch_35">
    <path d="M 271.908728 227.38577 
L 287.639901 227.38577 
L 287.639901 227.38577 
L 271.908728 227.38577 
z
" clip-path="url(#pc1f80bf913)" style="fill: #ff6f61"/>
   </g>
   <g id="patch_36">
    <path d="M 291.572694 227.38577 
L 307.303868 227.38577 
L 307.303868 227.38577 
L 291.572694 227.38577 
z
" clip-path="url(#pc1f80bf913)" style="fill: #ff6f61"/>
   </g>
   <g id="patch_37">
    <path d="M 311.236661 227.38577 
L 326.967834 227.38577 
L 326.967834 227.38577 
L 311.236661 227.38577 
z
" clip-path="url(#pc1f80bf913)" style="fill: #ff6f61"/>
   </g>
   <g id="patch_38">
    <path d="M 330.900628 227.38577 
L 346.631801 227.38577 
L 346.631801 227.38577 
L 330.900628 227.38577 
z
" clip-path="url(#pc1f80bf913)" style="fill: #ff6f61"/>
   </g>
   <g id="patch_39">
    <path d="M 350.564594 227.38577 
L 366.295767 227.38577 
L 366.295767 227.38577 
L 350.564594 227.38577 
z
" clip-path="url(#pc1f80bf913)" style="fill: #ff6f61"/>
   </g>
   <g id="patch_40">
    <path d="M 370.228561 227.38577 
L 385.959734 227.38577 
L 385.959734 227.38577 
L 370.228561 227.38577 
z
" clip-path="url(#pc1f80bf913)" style="fill: #ff6f61"/>
   </g>
   <g id="patch_41">
    <path d="M 389.892527 227.38577 
L 405.623701 227.38577 
L 405.623701 227.38577 
L 389.892527 227.38577 
z
" clip-path="url(#pc1f80bf913)" style="fill: #ff6f61"/>
   </g>
   <g id="patch_42">
    <path d="M 409.556494 227.38577 
L 425.287667 227.38577 
L 425.287667 227.38577 
L 409.556494 227.38577 
z
" clip-path="url(#pc1f80bf913)" style="fill: #ff6f61"/>
   </g>
   <g id="patch_43">
    <path d="M 429.22046 227.38577 
L 444.951634 227.38577 
L 444.951634 82.038361 
L 429.22046 82.038361 
z
" clip-path="url(#pc1f80bf913)" style="fill: #ff6f61"/>
   </g>
   <g id="patch_44">
    <path d="M 448.884427 227.38577 
L 464.6156 227.38577 
L 464.6156 227.38577 
L 448.884427 227.38577 
z
" clip-path="url(#pc1f80bf913)" style="fill: #ff6f61"/>
   </g>
   <g id="patch_45">
    <path d="M 468.548394 227.38577 
L 484.279567 227.38577 
L 484.279567 227.38577 
L 468.548394 227.38577 
z
" clip-path="url(#pc1f80bf913)" style="fill: #ff6f61"/>
   </g>
   <g id="patch_46">
    <path d="M 488.21236 227.38577 
L 503.943533 227.38577 
L 503.943533 213.820012 
L 488.21236 213.820012 
z
" clip-path="url(#pc1f80bf913)" style="fill: #ff6f61"/>
   </g>
   <g id="patch_47">
    <path d="M 507.876327 227.38577 
L 523.6075 227.38577 
L 523.6075 227.38577 
L 507.876327 227.38577 
z
" clip-path="url(#pc1f80bf913)" style="fill: #ff6f61"/>
   </g>
   <g id="patch_48">
    <path d="M 527.540293 227.38577 
L 543.271467 227.38577 
L 543.271467 227.38577 
L 527.540293 227.38577 
z
" clip-path="url(#pc1f80bf913)" style="fill: #ff6f61"/>
   </g>
   <g id="patch_49">
    <path d="M 547.20426 227.38577 
L 562.935433 227.38577 
L 562.935433 227.38577 
L 547.20426 227.38577 
z
" clip-path="url(#pc1f80bf913)" style="fill: #ff6f61"/>
   </g>
   <g id="patch_50">
    <path d="M 566.868227 227.38577 
L 582.5994 227.38577 
L 582.5994 227.38577 
L 566.868227 227.38577 
z
" clip-path="url(#pc1f80bf913)" style="fill: #ff6f61"/>
   </g>
   <g id="matplotlib.axis_1">
    <g id="xtick_1">
     <g id="line2d_1">
      <defs>
       <path id="m87680f76cd" d="M 0 0 
L 0 3.5 
" style="stroke: #000000; stroke-width: 0.8"/>
      </defs>
      <g>
       <use xlink:href="#m87680f76cd" x="122.462582" y="227.38577" style="stroke: #000000; stroke-width: 0.8"/>
      </g>
     </g>
     <g id="text_1">
      <!-- 0 -->
      <g transform="translate(118.645082 243.503895) scale(0.12 -0.12)">
       <defs>
        <path id="DejaVuSans-30" d="M 2034 4250 
Q 1547 4250 1301 3770 
Q 1056 3291 1056 2328 
Q 1056 1369 1301 889 
Q 1547 409 2034 409 
Q 2525 409 2770 889 
Q 3016 1369 3016 2328 
Q 3016 3291 2770 3770 
Q 2525 4250 2034 4250 
z
M 2034 4750 
Q 2819 4750 3233 4129 
Q 3647 3509 3647 2328 
Q 3647 1150 3233 529 
Q 2819 -91 2034 -91 
Q 1250 -91 836 529 
Q 422 1150 422 2328 
Q 422 3509 836 4129 
Q 1250 4750 2034 4750 
z
" transform="scale(0.015625)"/>
       </defs>
       <use xlink:href="#DejaVuSans-30"/>
      </g>
     </g>
    </g>
    <g id="xtick_2">
     <g id="line2d_2">
      <g>
       <use xlink:href="#m87680f76cd" x="142.126548" y="227.38577" style="stroke: #000000; stroke-width: 0.8"/>
      </g>
     </g>
     <g id="text_2">
      <!-- 1 -->
      <g transform="translate(138.309048 243.503895) scale(0.12 -0.12)">
       <defs>
        <path id="DejaVuSans-31" d="M 794 531 
L 1825 531 
L 1825 4091 
L 703 3866 
L 703 4441 
L 1819 4666 
L 2450 4666 
L 2450 531 
L 3481 531 
L 3481 0 
L 794 0 
L 794 531 
z
" transform="scale(0.015625)"/>
       </defs>
       <use xlink:href="#DejaVuSans-31"/>
      </g>
     </g>
    </g>
    <g id="xtick_3">
     <g id="line2d_3">
      <g>
       <use xlink:href="#m87680f76cd" x="161.790515" y="227.38577" style="stroke: #000000; stroke-width: 0.8"/>
      </g>
     </g>
     <g id="text_3">
      <!-- 2 -->
      <g transform="translate(157.973015 243.503895) scale(0.12 -0.12)">
       <defs>
        <path id="DejaVuSans-32" d="M 1228 531 
L 3431 531 
L 3431 0 
L 469 0 
L 469 531 
Q 828 903 1448 1529 
Q 2069 2156 2228 2338 
Q 2531 2678 2651 2914 
Q 2772 3150 2772 3378 
Q 2772 3750 2511 3984 
Q 2250 4219 1831 4219 
Q 1534 4219 1204 4116 
Q 875 4013 500 3803 
L 500 4441 
Q 881 4594 1212 4672 
Q 1544 4750 1819 4750 
Q 2544 4750 2975 4387 
Q 3406 4025 3406 3419 
Q 3406 3131 3298 2873 
Q 3191 2616 2906 2266 
Q 2828 2175 2409 1742 
Q 1991 1309 1228 531 
z
" transform="scale(0.015625)"/>
       </defs>
       <use xlink:href="#DejaVuSans-32"/>
      </g>
     </g>
    </g>
    <g id="xtick_4">
     <g id="line2d_4">
      <g>
       <use xlink:href="#m87680f76cd" x="181.454482" y="227.38577" style="stroke: #000000; stroke-width: 0.8"/>
      </g>
     </g>
     <g id="text_4">
      <!-- 3 -->
      <g transform="translate(177.636982 243.503895) scale(0.12 -0.12)">
       <defs>
        <path id="DejaVuSans-33" d="M 2597 2516 
Q 3050 2419 3304 2112 
Q 3559 1806 3559 1356 
Q 3559 666 3084 287 
Q 2609 -91 1734 -91 
Q 1441 -91 1130 -33 
Q 819 25 488 141 
L 488 750 
Q 750 597 1062 519 
Q 1375 441 1716 441 
Q 2309 441 2620 675 
Q 2931 909 2931 1356 
Q 2931 1769 2642 2001 
Q 2353 2234 1838 2234 
L 1294 2234 
L 1294 2753 
L 1863 2753 
Q 2328 2753 2575 2939 
Q 2822 3125 2822 3475 
Q 2822 3834 2567 4026 
Q 2313 4219 1838 4219 
Q 1578 4219 1281 4162 
Q 984 4106 628 3988 
L 628 4550 
Q 988 4650 1302 4700 
Q 1616 4750 1894 4750 
Q 2613 4750 3031 4423 
Q 3450 4097 3450 3541 
Q 3450 3153 3228 2886 
Q 3006 2619 2597 2516 
z
" transform="scale(0.015625)"/>
       </defs>
       <use xlink:href="#DejaVuSans-33"/>
      </g>
     </g>
    </g>
    <g id="xtick_5">
     <g id="line2d_5">
      <g>
       <use xlink:href="#m87680f76cd" x="201.118448" y="227.38577" style="stroke: #000000; stroke-width: 0.8"/>
      </g>
     </g>
     <g id="text_5">
      <!-- 4 -->
      <g transform="translate(197.300948 243.503895) scale(0.12 -0.12)">
       <defs>
        <path id="DejaVuSans-34" d="M 2419 4116 
L 825 1625 
L 2419 1625 
L 2419 4116 
z
M 2253 4666 
L 3047 4666 
L 3047 1625 
L 3713 1625 
L 3713 1100 
L 3047 1100 
L 3047 0 
L 2419 0 
L 2419 1100 
L 313 1100 
L 313 1709 
L 2253 4666 
z
" transform="scale(0.015625)"/>
       </defs>
       <use xlink:href="#DejaVuSans-34"/>
      </g>
     </g>
    </g>
    <g id="xtick_6">
     <g id="line2d_6">
      <g>
       <use xlink:href="#m87680f76cd" x="220.782415" y="227.38577" style="stroke: #000000; stroke-width: 0.8"/>
      </g>
     </g>
     <g id="text_6">
      <!-- 5 -->
      <g transform="translate(216.964915 243.503895) scale(0.12 -0.12)">
       <defs>
        <path id="DejaVuSans-35" d="M 691 4666 
L 3169 4666 
L 3169 4134 
L 1269 4134 
L 1269 2991 
Q 1406 3038 1543 3061 
Q 1681 3084 1819 3084 
Q 2600 3084 3056 2656 
Q 3513 2228 3513 1497 
Q 3513 744 3044 326 
Q 2575 -91 1722 -91 
Q 1428 -91 1123 -41 
Q 819 9 494 109 
L 494 744 
Q 775 591 1075 516 
Q 1375 441 1709 441 
Q 2250 441 2565 725 
Q 2881 1009 2881 1497 
Q 2881 1984 2565 2268 
Q 2250 2553 1709 2553 
Q 1456 2553 1204 2497 
Q 953 2441 691 2322 
L 691 4666 
z
" transform="scale(0.015625)"/>
       </defs>
       <use xlink:href="#DejaVuSans-35"/>
      </g>
     </g>
    </g>
    <g id="xtick_7">
     <g id="line2d_7">
      <g>
       <use xlink:href="#m87680f76cd" x="240.446381" y="227.38577" style="stroke: #000000; stroke-width: 0.8"/>
      </g>
     </g>
     <g id="text_7">
      <!-- 6 -->
      <g transform="translate(236.628881 243.503895) scale(0.12 -0.12)">
       <defs>
        <path id="DejaVuSans-36" d="M 2113 2584 
Q 1688 2584 1439 2293 
Q 1191 2003 1191 1497 
Q 1191 994 1439 701 
Q 1688 409 2113 409 
Q 2538 409 2786 701 
Q 3034 994 3034 1497 
Q 3034 2003 2786 2293 
Q 2538 2584 2113 2584 
z
M 3366 4563 
L 3366 3988 
Q 3128 4100 2886 4159 
Q 2644 4219 2406 4219 
Q 1781 4219 1451 3797 
Q 1122 3375 1075 2522 
Q 1259 2794 1537 2939 
Q 1816 3084 2150 3084 
Q 2853 3084 3261 2657 
Q 3669 2231 3669 1497 
Q 3669 778 3244 343 
Q 2819 -91 2113 -91 
Q 1303 -91 875 529 
Q 447 1150 447 2328 
Q 447 3434 972 4092 
Q 1497 4750 2381 4750 
Q 2619 4750 2861 4703 
Q 3103 4656 3366 4563 
z
" transform="scale(0.015625)"/>
       </defs>
       <use xlink:href="#DejaVuSans-36"/>
      </g>
     </g>
    </g>
    <g id="xtick_8">
     <g id="line2d_8">
      <g>
       <use xlink:href="#m87680f76cd" x="260.110348" y="227.38577" style="stroke: #000000; stroke-width: 0.8"/>
      </g>
     </g>
     <g id="text_8">
      <!-- 7 -->
      <g transform="translate(256.292848 243.503895) scale(0.12 -0.12)">
       <defs>
        <path id="DejaVuSans-37" d="M 525 4666 
L 3525 4666 
L 3525 4397 
L 1831 0 
L 1172 0 
L 2766 4134 
L 525 4134 
L 525 4666 
z
" transform="scale(0.015625)"/>
       </defs>
       <use xlink:href="#DejaVuSans-37"/>
      </g>
     </g>
    </g>
    <g id="xtick_9">
     <g id="line2d_9">
      <g>
       <use xlink:href="#m87680f76cd" x="279.774314" y="227.38577" style="stroke: #000000; stroke-width: 0.8"/>
      </g>
     </g>
     <g id="text_9">
      <!-- 8 -->
      <g transform="translate(275.956814 243.503895) scale(0.12 -0.12)">
       <defs>
        <path id="DejaVuSans-38" d="M 2034 2216 
Q 1584 2216 1326 1975 
Q 1069 1734 1069 1313 
Q 1069 891 1326 650 
Q 1584 409 2034 409 
Q 2484 409 2743 651 
Q 3003 894 3003 1313 
Q 3003 1734 2745 1975 
Q 2488 2216 2034 2216 
z
M 1403 2484 
Q 997 2584 770 2862 
Q 544 3141 544 3541 
Q 544 4100 942 4425 
Q 1341 4750 2034 4750 
Q 2731 4750 3128 4425 
Q 3525 4100 3525 3541 
Q 3525 3141 3298 2862 
Q 3072 2584 2669 2484 
Q 3125 2378 3379 2068 
Q 3634 1759 3634 1313 
Q 3634 634 3220 271 
Q 2806 -91 2034 -91 
Q 1263 -91 848 271 
Q 434 634 434 1313 
Q 434 1759 690 2068 
Q 947 2378 1403 2484 
z
M 1172 3481 
Q 1172 3119 1398 2916 
Q 1625 2713 2034 2713 
Q 2441 2713 2670 2916 
Q 2900 3119 2900 3481 
Q 2900 3844 2670 4047 
Q 2441 4250 2034 4250 
Q 1625 4250 1398 4047 
Q 1172 3844 1172 3481 
z
" transform="scale(0.015625)"/>
       </defs>
       <use xlink:href="#DejaVuSans-38"/>
      </g>
     </g>
    </g>
    <g id="xtick_10">
     <g id="line2d_10">
      <g>
       <use xlink:href="#m87680f76cd" x="299.438281" y="227.38577" style="stroke: #000000; stroke-width: 0.8"/>
      </g>
     </g>
     <g id="text_10">
      <!-- 9 -->
      <g transform="translate(295.620781 243.503895) scale(0.12 -0.12)">
       <defs>
        <path id="DejaVuSans-39" d="M 703 97 
L 703 672 
Q 941 559 1184 500 
Q 1428 441 1663 441 
Q 2288 441 2617 861 
Q 2947 1281 2994 2138 
Q 2813 1869 2534 1725 
Q 2256 1581 1919 1581 
Q 1219 1581 811 2004 
Q 403 2428 403 3163 
Q 403 3881 828 4315 
Q 1253 4750 1959 4750 
Q 2769 4750 3195 4129 
Q 3622 3509 3622 2328 
Q 3622 1225 3098 567 
Q 2575 -91 1691 -91 
Q 1453 -91 1209 -44 
Q 966 3 703 97 
z
M 1959 2075 
Q 2384 2075 2632 2365 
Q 2881 2656 2881 3163 
Q 2881 3666 2632 3958 
Q 2384 4250 1959 4250 
Q 1534 4250 1286 3958 
Q 1038 3666 1038 3163 
Q 1038 2656 1286 2365 
Q 1534 2075 1959 2075 
z
" transform="scale(0.015625)"/>
       </defs>
       <use xlink:href="#DejaVuSans-39"/>
      </g>
     </g>
    </g>
    <g id="xtick_11">
     <g id="line2d_11">
      <g>
       <use xlink:href="#m87680f76cd" x="319.102248" y="227.38577" style="stroke: #000000; stroke-width: 0.8"/>
      </g>
     </g>
     <g id="text_11">
      <!-- 10 -->
      <g transform="translate(311.467248 243.503895) scale(0.12 -0.12)">
       <use xlink:href="#DejaVuSans-31"/>
       <use xlink:href="#DejaVuSans-30" x="63.623047"/>
      </g>
     </g>
    </g>
    <g id="xtick_12">
     <g id="line2d_12">
      <g>
       <use xlink:href="#m87680f76cd" x="338.766214" y="227.38577" style="stroke: #000000; stroke-width: 0.8"/>
      </g>
     </g>
     <g id="text_12">
      <!-- 11 -->
      <g transform="translate(331.131214 243.503895) scale(0.12 -0.12)">
       <use xlink:href="#DejaVuSans-31"/>
       <use xlink:href="#DejaVuSans-31" x="63.623047"/>
      </g>
     </g>
    </g>
    <g id="xtick_13">
     <g id="line2d_13">
      <g>
       <use xlink:href="#m87680f76cd" x="358.430181" y="227.38577" style="stroke: #000000; stroke-width: 0.8"/>
      </g>
     </g>
     <g id="text_13">
      <!-- 12 -->
      <g transform="translate(350.795181 243.503895) scale(0.12 -0.12)">
       <use xlink:href="#DejaVuSans-31"/>
       <use xlink:href="#DejaVuSans-32" x="63.623047"/>
      </g>
     </g>
    </g>
    <g id="xtick_14">
     <g id="line2d_14">
      <g>
       <use xlink:href="#m87680f76cd" x="378.094147" y="227.38577" style="stroke: #000000; stroke-width: 0.8"/>
      </g>
     </g>
     <g id="text_14">
      <!-- 13 -->
      <g transform="translate(370.459147 243.503895) scale(0.12 -0.12)">
       <use xlink:href="#DejaVuSans-31"/>
       <use xlink:href="#DejaVuSans-33" x="63.623047"/>
      </g>
     </g>
    </g>
    <g id="xtick_15">
     <g id="line2d_15">
      <g>
       <use xlink:href="#m87680f76cd" x="397.758114" y="227.38577" style="stroke: #000000; stroke-width: 0.8"/>
      </g>
     </g>
     <g id="text_15">
      <!-- 14 -->
      <g transform="translate(390.123114 243.503895) scale(0.12 -0.12)">
       <use xlink:href="#DejaVuSans-31"/>
       <use xlink:href="#DejaVuSans-34" x="63.623047"/>
      </g>
     </g>
    </g>
    <g id="xtick_16">
     <g id="line2d_16">
      <g>
       <use xlink:href="#m87680f76cd" x="417.422081" y="227.38577" style="stroke: #000000; stroke-width: 0.8"/>
      </g>
     </g>
     <g id="text_16">
      <!-- 15 -->
      <g transform="translate(409.787081 243.503895) scale(0.12 -0.12)">
       <use xlink:href="#DejaVuSans-31"/>
       <use xlink:href="#DejaVuSans-35" x="63.623047"/>
      </g>
     </g>
    </g>
    <g id="xtick_17">
     <g id="line2d_17">
      <g>
       <use xlink:href="#m87680f76cd" x="437.086047" y="227.38577" style="stroke: #000000; stroke-width: 0.8"/>
      </g>
     </g>
     <g id="text_17">
      <!-- 16 -->
      <g transform="translate(429.451047 243.503895) scale(0.12 -0.12)">
       <use xlink:href="#DejaVuSans-31"/>
       <use xlink:href="#DejaVuSans-36" x="63.623047"/>
      </g>
     </g>
    </g>
    <g id="xtick_18">
     <g id="line2d_18">
      <g>
       <use xlink:href="#m87680f76cd" x="456.750014" y="227.38577" style="stroke: #000000; stroke-width: 0.8"/>
      </g>
     </g>
     <g id="text_18">
      <!-- 17 -->
      <g transform="translate(449.115014 243.503895) scale(0.12 -0.12)">
       <use xlink:href="#DejaVuSans-31"/>
       <use xlink:href="#DejaVuSans-37" x="63.623047"/>
      </g>
     </g>
    </g>
    <g id="xtick_19">
     <g id="line2d_19">
      <g>
       <use xlink:href="#m87680f76cd" x="476.41398" y="227.38577" style="stroke: #000000; stroke-width: 0.8"/>
      </g>
     </g>
     <g id="text_19">
      <!-- 18 -->
      <g transform="translate(468.77898 243.503895) scale(0.12 -0.12)">
       <use xlink:href="#DejaVuSans-31"/>
       <use xlink:href="#DejaVuSans-38" x="63.623047"/>
      </g>
     </g>
    </g>
    <g id="xtick_20">
     <g id="line2d_20">
      <g>
       <use xlink:href="#m87680f76cd" x="496.077947" y="227.38577" style="stroke: #000000; stroke-width: 0.8"/>
      </g>
     </g>
     <g id="text_20">
      <!-- 19 -->
      <g transform="translate(488.442947 243.503895) scale(0.12 -0.12)">
       <use xlink:href="#DejaVuSans-31"/>
       <use xlink:href="#DejaVuSans-39" x="63.623047"/>
      </g>
     </g>
    </g>
    <g id="xtick_21">
     <g id="line2d_21">
      <g>
       <use xlink:href="#m87680f76cd" x="515.741913" y="227.38577" style="stroke: #000000; stroke-width: 0.8"/>
      </g>
     </g>
     <g id="text_21">
      <!-- 20 -->
      <g transform="translate(508.106913 243.503895) scale(0.12 -0.12)">
       <use xlink:href="#DejaVuSans-32"/>
       <use xlink:href="#DejaVuSans-30" x="63.623047"/>
      </g>
     </g>
    </g>
    <g id="xtick_22">
     <g id="line2d_22">
      <g>
       <use xlink:href="#m87680f76cd" x="535.40588" y="227.38577" style="stroke: #000000; stroke-width: 0.8"/>
      </g>
     </g>
     <g id="text_22">
      <!-- 21 -->
      <g transform="translate(527.77088 243.503895) scale(0.12 -0.12)">
       <use xlink:href="#DejaVuSans-32"/>
       <use xlink:href="#DejaVuSans-31" x="63.623047"/>
      </g>
     </g>
    </g>
    <g id="xtick_23">
     <g id="line2d_23">
      <g>
       <use xlink:href="#m87680f76cd" x="555.069847" y="227.38577" style="stroke: #000000; stroke-width: 0.8"/>
      </g>
     </g>
     <g id="text_23">
      <!-- 22 -->
      <g transform="translate(547.434847 243.503895) scale(0.12 -0.12)">
       <use xlink:href="#DejaVuSans-32"/>
       <use xlink:href="#DejaVuSans-32" x="63.623047"/>
      </g>
     </g>
    </g>
    <g id="xtick_24">
     <g id="line2d_24">
      <g>
       <use xlink:href="#m87680f76cd" x="574.733813" y="227.38577" style="stroke: #000000; stroke-width: 0.8"/>
      </g>
     </g>
     <g id="text_24">
      <!-- 23 -->
      <g transform="translate(567.098813 243.503895) scale(0.12 -0.12)">
       <use xlink:href="#DejaVuSans-32"/>
       <use xlink:href="#DejaVuSans-33" x="63.623047"/>
      </g>
     </g>
    </g>
   </g>
   <g id="matplotlib.axis_2">
    <g id="ytick_1">
     <g id="line2d_25">
      <defs>
       <path id="m0c00e0557d" d="M 0 0 
L -3.5 0 
" style="stroke: #000000; stroke-width: 0.8"/>
      </defs>
      <g>
       <use xlink:href="#m0c00e0557d" x="91.196875" y="227.38577" style="stroke: #000000; stroke-width: 0.8"/>
      </g>
     </g>
     <g id="text_25">
      <!-- 0 -->
      <g transform="translate(76.561875 231.944832) scale(0.12 -0.12)">
       <use xlink:href="#DejaVuSans-30"/>
      </g>
     </g>
    </g>
    <g id="ytick_2">
     <g id="line2d_26">
      <g>
       <use xlink:href="#m0c00e0557d" x="91.196875" y="188.626461" style="stroke: #000000; stroke-width: 0.8"/>
      </g>
     </g>
     <g id="text_26">
      <!-- 40 -->
      <g transform="translate(68.926875 193.185524) scale(0.12 -0.12)">
       <use xlink:href="#DejaVuSans-34"/>
       <use xlink:href="#DejaVuSans-30" x="63.623047"/>
      </g>
     </g>
    </g>
    <g id="ytick_3">
     <g id="line2d_27">
      <g>
       <use xlink:href="#m0c00e0557d" x="91.196875" y="149.867152" style="stroke: #000000; stroke-width: 0.8"/>
      </g>
     </g>
     <g id="text_27">
      <!-- 80 -->
      <g transform="translate(68.926875 154.426215) scale(0.12 -0.12)">
       <use xlink:href="#DejaVuSans-38"/>
       <use xlink:href="#DejaVuSans-30" x="63.623047"/>
      </g>
     </g>
    </g>
    <g id="ytick_4">
     <g id="line2d_28">
      <g>
       <use xlink:href="#m0c00e0557d" x="91.196875" y="111.107843" style="stroke: #000000; stroke-width: 0.8"/>
      </g>
     </g>
     <g id="text_28">
      <!-- 120 -->
      <g transform="translate(61.291875 115.666906) scale(0.12 -0.12)">
       <use xlink:href="#DejaVuSans-31"/>
       <use xlink:href="#DejaVuSans-32" x="63.623047"/>
       <use xlink:href="#DejaVuSans-30" x="127.246094"/>
      </g>
     </g>
    </g>
    <g id="ytick_5">
     <g id="line2d_29">
      <g>
       <use xlink:href="#m0c00e0557d" x="91.196875" y="72.348534" style="stroke: #000000; stroke-width: 0.8"/>
      </g>
     </g>
     <g id="text_29">
      <!-- 160 -->
      <g transform="translate(61.291875 76.907597) scale(0.12 -0.12)">
       <use xlink:href="#DejaVuSans-31"/>
       <use xlink:href="#DejaVuSans-36" x="63.623047"/>
       <use xlink:href="#DejaVuSans-30" x="127.246094"/>
      </g>
     </g>
    </g>
    <g id="text_30">
     <!-- Step Count -->
     <g transform="translate(52.716563 205.020854) rotate(-90) scale(0.22 -0.22)">
      <defs>
       <path id="DejaVuSans-53" d="M 3425 4513 
L 3425 3897 
Q 3066 4069 2747 4153 
Q 2428 4238 2131 4238 
Q 1616 4238 1336 4038 
Q 1056 3838 1056 3469 
Q 1056 3159 1242 3001 
Q 1428 2844 1947 2747 
L 2328 2669 
Q 3034 2534 3370 2195 
Q 3706 1856 3706 1288 
Q 3706 609 3251 259 
Q 2797 -91 1919 -91 
Q 1588 -91 1214 -16 
Q 841 59 441 206 
L 441 856 
Q 825 641 1194 531 
Q 1563 422 1919 422 
Q 2459 422 2753 634 
Q 3047 847 3047 1241 
Q 3047 1584 2836 1778 
Q 2625 1972 2144 2069 
L 1759 2144 
Q 1053 2284 737 2584 
Q 422 2884 422 3419 
Q 422 4038 858 4394 
Q 1294 4750 2059 4750 
Q 2388 4750 2728 4690 
Q 3069 4631 3425 4513 
z
" transform="scale(0.015625)"/>
       <path id="DejaVuSans-74" d="M 1172 4494 
L 1172 3500 
L 2356 3500 
L 2356 3053 
L 1172 3053 
L 1172 1153 
Q 1172 725 1289 603 
Q 1406 481 1766 481 
L 2356 481 
L 2356 0 
L 1766 0 
Q 1100 0 847 248 
Q 594 497 594 1153 
L 594 3053 
L 172 3053 
L 172 3500 
L 594 3500 
L 594 4494 
L 1172 4494 
z
" transform="scale(0.015625)"/>
       <path id="DejaVuSans-65" d="M 3597 1894 
L 3597 1613 
L 953 1613 
Q 991 1019 1311 708 
Q 1631 397 2203 397 
Q 2534 397 2845 478 
Q 3156 559 3463 722 
L 3463 178 
Q 3153 47 2828 -22 
Q 2503 -91 2169 -91 
Q 1331 -91 842 396 
Q 353 884 353 1716 
Q 353 2575 817 3079 
Q 1281 3584 2069 3584 
Q 2775 3584 3186 3129 
Q 3597 2675 3597 1894 
z
M 3022 2063 
Q 3016 2534 2758 2815 
Q 2500 3097 2075 3097 
Q 1594 3097 1305 2825 
Q 1016 2553 972 2059 
L 3022 2063 
z
" transform="scale(0.015625)"/>
       <path id="DejaVuSans-70" d="M 1159 525 
L 1159 -1331 
L 581 -1331 
L 581 3500 
L 1159 3500 
L 1159 2969 
Q 1341 3281 1617 3432 
Q 1894 3584 2278 3584 
Q 2916 3584 3314 3078 
Q 3713 2572 3713 1747 
Q 3713 922 3314 415 
Q 2916 -91 2278 -91 
Q 1894 -91 1617 61 
Q 1341 213 1159 525 
z
M 3116 1747 
Q 3116 2381 2855 2742 
Q 2594 3103 2138 3103 
Q 1681 3103 1420 2742 
Q 1159 2381 1159 1747 
Q 1159 1113 1420 752 
Q 1681 391 2138 391 
Q 2594 391 2855 752 
Q 3116 1113 3116 1747 
z
" transform="scale(0.015625)"/>
       <path id="DejaVuSans-20" transform="scale(0.015625)"/>
       <path id="DejaVuSans-43" d="M 4122 4306 
L 4122 3641 
Q 3803 3938 3442 4084 
Q 3081 4231 2675 4231 
Q 1875 4231 1450 3742 
Q 1025 3253 1025 2328 
Q 1025 1406 1450 917 
Q 1875 428 2675 428 
Q 3081 428 3442 575 
Q 3803 722 4122 1019 
L 4122 359 
Q 3791 134 3420 21 
Q 3050 -91 2638 -91 
Q 1578 -91 968 557 
Q 359 1206 359 2328 
Q 359 3453 968 4101 
Q 1578 4750 2638 4750 
Q 3056 4750 3426 4639 
Q 3797 4528 4122 4306 
z
" transform="scale(0.015625)"/>
       <path id="DejaVuSans-6f" d="M 1959 3097 
Q 1497 3097 1228 2736 
Q 959 2375 959 1747 
Q 959 1119 1226 758 
Q 1494 397 1959 397 
Q 2419 397 2687 759 
Q 2956 1122 2956 1747 
Q 2956 2369 2687 2733 
Q 2419 3097 1959 3097 
z
M 1959 3584 
Q 2709 3584 3137 3096 
Q 3566 2609 3566 1747 
Q 3566 888 3137 398 
Q 2709 -91 1959 -91 
Q 1206 -91 779 398 
Q 353 888 353 1747 
Q 353 2609 779 3096 
Q 1206 3584 1959 3584 
z
" transform="scale(0.015625)"/>
       <path id="DejaVuSans-75" d="M 544 1381 
L 544 3500 
L 1119 3500 
L 1119 1403 
Q 1119 906 1312 657 
Q 1506 409 1894 409 
Q 2359 409 2629 706 
Q 2900 1003 2900 1516 
L 2900 3500 
L 3475 3500 
L 3475 0 
L 2900 0 
L 2900 538 
Q 2691 219 2414 64 
Q 2138 -91 1772 -91 
Q 1169 -91 856 284 
Q 544 659 544 1381 
z
M 1991 3584 
L 1991 3584 
z
" transform="scale(0.015625)"/>
       <path id="DejaVuSans-6e" d="M 3513 2113 
L 3513 0 
L 2938 0 
L 2938 2094 
Q 2938 2591 2744 2837 
Q 2550 3084 2163 3084 
Q 1697 3084 1428 2787 
Q 1159 2491 1159 1978 
L 1159 0 
L 581 0 
L 581 3500 
L 1159 3500 
L 1159 2956 
Q 1366 3272 1645 3428 
Q 1925 3584 2291 3584 
Q 2894 3584 3203 3211 
Q 3513 2838 3513 2113 
z
" transform="scale(0.015625)"/>
      </defs>
      <use xlink:href="#DejaVuSans-53"/>
      <use xlink:href="#DejaVuSans-74" x="63.476562"/>
      <use xlink:href="#DejaVuSans-65" x="102.685547"/>
      <use xlink:href="#DejaVuSans-70" x="164.208984"/>
      <use xlink:href="#DejaVuSans-20" x="227.685547"/>
      <use xlink:href="#DejaVuSans-43" x="259.472656"/>
      <use xlink:href="#DejaVuSans-6f" x="329.296875"/>
      <use xlink:href="#DejaVuSans-75" x="390.478516"/>
      <use xlink:href="#DejaVuSans-6e" x="453.857422"/>
      <use xlink:href="#DejaVuSans-74" x="517.236328"/>
     </g>
    </g>
   </g>
   <g id="patch_51">
    <path d="M 91.196875 227.38577 
L 91.196875 60.23625 
" style="fill: none; stroke: #000000; stroke-width: 0.8; stroke-linejoin: miter; stroke-linecap: square"/>
   </g>
   <g id="patch_52">
    <path d="M 605.99952 227.38577 
L 605.99952 60.23625 
" style="fill: none; stroke: #000000; stroke-width: 0.8; stroke-linejoin: miter; stroke-linecap: square"/>
   </g>
   <g id="patch_53">
    <path d="M 91.196875 227.38577 
L 605.99952 227.38577 
" style="fill: none; stroke: #000000; stroke-width: 0.8; stroke-linejoin: miter; stroke-linecap: square"/>
   </g>
   <g id="patch_54">
    <path d="M 91.196875 60.23625 
L 605.99952 60.23625 
" style="fill: none; stroke: #000000; stroke-width: 0.8; stroke-linejoin: miter; stroke-linecap: square"/>
   </g>
   <g id="text_31">
    <!-- 150.0 -->
    <g transform="translate(419.909172 79.542736) scale(0.12 -0.12)">
     <defs>
      <path id="DejaVuSans-2e" d="M 684 794 
L 1344 794 
L 1344 0 
L 684 0 
L 684 794 
z
" transform="scale(0.015625)"/>
     </defs>
     <use xlink:href="#DejaVuSans-31"/>
     <use xlink:href="#DejaVuSans-35" x="63.623047"/>
     <use xlink:href="#DejaVuSans-30" x="127.246094"/>
     <use xlink:href="#DejaVuSans-2e" x="190.869141"/>
     <use xlink:href="#DejaVuSans-30" x="222.65625"/>
    </g>
   </g>
   <g id="text_32">
    <!-- 14.0 -->
    <g transform="translate(482.718572 211.324387) scale(0.12 -0.12)">
     <use xlink:href="#DejaVuSans-31"/>
     <use xlink:href="#DejaVuSans-34" x="63.623047"/>
     <use xlink:href="#DejaVuSans-2e" x="127.246094"/>
     <use xlink:href="#DejaVuSans-30" x="159.033203"/>
    </g>
   </g>
   <g id="text_33">
    <!-- 2024-12-11 -->
    <g transform="translate(271.843198 54.23625) scale(0.24 -0.24)">
     <defs>
      <path id="DejaVuSans-Bold-32" d="M 1844 884 
L 3897 884 
L 3897 0 
L 506 0 
L 506 884 
L 2209 2388 
Q 2438 2594 2547 2791 
Q 2656 2988 2656 3200 
Q 2656 3528 2436 3728 
Q 2216 3928 1850 3928 
Q 1569 3928 1234 3808 
Q 900 3688 519 3450 
L 519 4475 
Q 925 4609 1322 4679 
Q 1719 4750 2100 4750 
Q 2938 4750 3402 4381 
Q 3866 4013 3866 3353 
Q 3866 2972 3669 2642 
Q 3472 2313 2841 1759 
L 1844 884 
z
" transform="scale(0.015625)"/>
      <path id="DejaVuSans-Bold-30" d="M 2944 2338 
Q 2944 3213 2780 3570 
Q 2616 3928 2228 3928 
Q 1841 3928 1675 3570 
Q 1509 3213 1509 2338 
Q 1509 1453 1675 1090 
Q 1841 728 2228 728 
Q 2613 728 2778 1090 
Q 2944 1453 2944 2338 
z
M 4147 2328 
Q 4147 1169 3647 539 
Q 3147 -91 2228 -91 
Q 1306 -91 806 539 
Q 306 1169 306 2328 
Q 306 3491 806 4120 
Q 1306 4750 2228 4750 
Q 3147 4750 3647 4120 
Q 4147 3491 4147 2328 
z
" transform="scale(0.015625)"/>
      <path id="DejaVuSans-Bold-34" d="M 2356 3675 
L 1038 1722 
L 2356 1722 
L 2356 3675 
z
M 2156 4666 
L 3494 4666 
L 3494 1722 
L 4159 1722 
L 4159 850 
L 3494 850 
L 3494 0 
L 2356 0 
L 2356 850 
L 288 850 
L 288 1881 
L 2156 4666 
z
" transform="scale(0.015625)"/>
      <path id="DejaVuSans-Bold-2d" d="M 347 2297 
L 2309 2297 
L 2309 1388 
L 347 1388 
L 347 2297 
z
" transform="scale(0.015625)"/>
      <path id="DejaVuSans-Bold-31" d="M 750 831 
L 1813 831 
L 1813 3847 
L 722 3622 
L 722 4441 
L 1806 4666 
L 2950 4666 
L 2950 831 
L 4013 831 
L 4013 0 
L 750 0 
L 750 831 
z
" transform="scale(0.015625)"/>
     </defs>
     <use xlink:href="#DejaVuSans-Bold-32"/>
     <use xlink:href="#DejaVuSans-Bold-30" x="69.580078"/>
     <use xlink:href="#DejaVuSans-Bold-32" x="139.160156"/>
     <use xlink:href="#DejaVuSans-Bold-34" x="208.740234"/>
     <use xlink:href="#DejaVuSans-Bold-2d" x="278.320312"/>
     <use xlink:href="#DejaVuSans-Bold-31" x="319.824219"/>
     <use xlink:href="#DejaVuSans-Bold-32" x="389.404297"/>
     <use xlink:href="#DejaVuSans-Bold-2d" x="458.984375"/>
     <use xlink:href="#DejaVuSans-Bold-31" x="500.488281"/>
     <use xlink:href="#DejaVuSans-Bold-31" x="570.068359"/>
    </g>
   </g>
  </g>
  <g id="axes_2">
   <g id="patch_55">
    <path d="M 91.196875 443.38577 
L 605.99952 443.38577 
L 605.99952 276.23625 
L 91.196875 276.23625 
z
" style="fill: #f6efe6"/>
   </g>
   <g id="patch_56">
    <path d="M 114.596995 443.38577 
L 130.328168 443.38577 
L 130.328168 443.38577 
L 114.596995 443.38577 
z
" clip-path="url(#p051e0d8a22)" style="fill: #ff6f61"/>
   </g>
   <g id="patch_57">
    <path d="M 134.260962 443.38577 
L 149.992135 443.38577 
L 149.992135 443.38577 
L 134.260962 443.38577 
z
" clip-path="url(#p051e0d8a22)" style="fill: #ff6f61"/>
   </g>
   <g id="patch_58">
    <path d="M 153.924928 443.38577 
L 169.656102 443.38577 
L 169.656102 443.38577 
L 153.924928 443.38577 
z
" clip-path="url(#p051e0d8a22)" style="fill: #ff6f61"/>
   </g>
   <g id="patch_59">
    <path d="M 173.588895 443.38577 
L 189.320068 443.38577 
L 189.320068 443.38577 
L 173.588895 443.38577 
z
" clip-path="url(#p051e0d8a22)" style="fill: #ff6f61"/>
   </g>
   <g id="patch_60">
    <path d="M 193.252862 443.38577 
L 208.984035 443.38577 
L 208.984035 443.38577 
L 193.252862 443.38577 
z
" clip-path="url(#p051e0d8a22)" style="fill: #ff6f61"/>
   </g>
   <g id="patch_61">
    <path d="M 212.916828 443.38577 
L 228.648001 443.38577 
L 228.648001 443.38577 
L 212.916828 443.38577 
z
" clip-path="url(#p051e0d8a22)" style="fill: #ff6f61"/>
   </g>
   <g id="patch_62">
    <path d="M 232.580795 443.38577 
L 248.311968 443.38577 
L 248.311968 443.38577 
L 232.580795 443.38577 
z
" clip-path="url(#p051e0d8a22)" style="fill: #ff6f61"/>
   </g>
   <g id="patch_63">
    <path d="M 252.244761 443.38577 
L 267.975935 443.38577 
L 267.975935 443.38577 
L 252.244761 443.38577 
z
" clip-path="url(#p051e0d8a22)" style="fill: #ff6f61"/>
   </g>
   <g id="patch_64">
    <path d="M 271.908728 443.38577 
L 287.639901 443.38577 
L 287.639901 443.38577 
L 271.908728 443.38577 
z
" clip-path="url(#p051e0d8a22)" style="fill: #ff6f61"/>
   </g>
   <g id="patch_65">
    <path d="M 291.572694 443.38577 
L 307.303868 443.38577 
L 307.303868 298.038361 
L 291.572694 298.038361 
z
" clip-path="url(#p051e0d8a22)" style="fill: #ff6f61"/>
   </g>
   <g id="patch_66">
    <path d="M 311.236661 443.38577 
L 326.967834 443.38577 
L 326.967834 407.790486 
L 311.236661 407.790486 
z
" clip-path="url(#p051e0d8a22)" style="fill: #ff6f61"/>
   </g>
   <g id="patch_67">
    <path d="M 330.900628 443.38577 
L 346.631801 443.38577 
L 346.631801 427.071265 
L 330.900628 427.071265 
z
" clip-path="url(#p051e0d8a22)" style="fill: #ff6f61"/>
   </g>
   <g id="patch_68">
    <path d="M 350.564594 443.38577 
L 366.295767 443.38577 
L 366.295767 443.38577 
L 350.564594 443.38577 
z
" clip-path="url(#p051e0d8a22)" style="fill: #ff6f61"/>
   </g>
   <g id="patch_69">
    <path d="M 370.228561 443.38577 
L 385.959734 443.38577 
L 385.959734 438.93636 
L 370.228561 438.93636 
z
" clip-path="url(#p051e0d8a22)" style="fill: #ff6f61"/>
   </g>
   <g id="patch_70">
    <path d="M 389.892527 443.38577 
L 405.623701 443.38577 
L 405.623701 443.38577 
L 389.892527 443.38577 
z
" clip-path="url(#p051e0d8a22)" style="fill: #ff6f61"/>
   </g>
   <g id="patch_71">
    <path d="M 409.556494 443.38577 
L 425.287667 443.38577 
L 425.287667 443.38577 
L 409.556494 443.38577 
z
" clip-path="url(#p051e0d8a22)" style="fill: #ff6f61"/>
   </g>
   <g id="patch_72">
    <path d="M 429.22046 443.38577 
L 444.951634 443.38577 
L 444.951634 443.38577 
L 429.22046 443.38577 
z
" clip-path="url(#p051e0d8a22)" style="fill: #ff6f61"/>
   </g>
   <g id="patch_73">
    <path d="M 448.884427 443.38577 
L 464.6156 443.38577 
L 464.6156 443.38577 
L 448.884427 443.38577 
z
" clip-path="url(#p051e0d8a22)" style="fill: #ff6f61"/>
   </g>
   <g id="patch_74">
    <path d="M 468.548394 443.38577 
L 484.279567 443.38577 
L 484.279567 443.38577 
L 468.548394 443.38577 
z
" clip-path="url(#p051e0d8a22)" style="fill: #ff6f61"/>
   </g>
   <g id="patch_75">
    <path d="M 488.21236 443.38577 
L 503.943533 443.38577 
L 503.943533 443.38577 
L 488.21236 443.38577 
z
" clip-path="url(#p051e0d8a22)" style="fill: #ff6f61"/>
   </g>
   <g id="patch_76">
    <path d="M 507.876327 443.38577 
L 523.6075 443.38577 
L 523.6075 443.38577 
L 507.876327 443.38577 
z
" clip-path="url(#p051e0d8a22)" style="fill: #ff6f61"/>
   </g>
   <g id="patch_77">
    <path d="M 527.540293 443.38577 
L 543.271467 443.38577 
L 543.271467 443.38577 
L 527.540293 443.38577 
z
" clip-path="url(#p051e0d8a22)" style="fill: #ff6f61"/>
   </g>
   <g id="patch_78">
    <path d="M 547.20426 443.38577 
L 562.935433 443.38577 
L 562.935433 443.38577 
L 547.20426 443.38577 
z
" clip-path="url(#p051e0d8a22)" style="fill: #ff6f61"/>
   </g>
   <g id="patch_79">
    <path d="M 566.868227 443.38577 
L 582.5994 443.38577 
L 582.5994 443.38577 
L 566.868227 443.38577 
z
" clip-path="url(#p051e0d8a22)" style="fill: #ff6f61"/>
   </g>
   <g id="patch_80">
    <path d="M 114.596995 443.38577 
L 130.328168 443.38577 
L 130.328168 443.38577 
L 114.596995 443.38577 
z
" clip-path="url(#p051e0d8a22)" style="fill: #ff6f61"/>
   </g>
   <g id="patch_81">
    <path d="M 134.260962 443.38577 
L 149.992135 443.38577 
L 149.992135 443.38577 
L 134.260962 443.38577 
z
" clip-path="url(#p051e0d8a22)" style="fill: #ff6f61"/>
   </g>
   <g id="patch_82">
    <path d="M 153.924928 443.38577 
L 169.656102 443.38577 
L 169.656102 443.38577 
L 153.924928 443.38577 
z
" clip-path="url(#p051e0d8a22)" style="fill: #ff6f61"/>
   </g>
   <g id="patch_83">
    <path d="M 173.588895 443.38577 
L 189.320068 443.38577 
L 189.320068 443.38577 
L 173.588895 443.38577 
z
" clip-path="url(#p051e0d8a22)" style="fill: #ff6f61"/>
   </g>
   <g id="patch_84">
    <path d="M 193.252862 443.38577 
L 208.984035 443.38577 
L 208.984035 443.38577 
L 193.252862 443.38577 
z
" clip-path="url(#p051e0d8a22)" style="fill: #ff6f61"/>
   </g>
   <g id="patch_85">
    <path d="M 212.916828 443.38577 
L 228.648001 443.38577 
L 228.648001 443.38577 
L 212.916828 443.38577 
z
" clip-path="url(#p051e0d8a22)" style="fill: #ff6f61"/>
   </g>
   <g id="patch_86">
    <path d="M 232.580795 443.38577 
L 248.311968 443.38577 
L 248.311968 443.38577 
L 232.580795 443.38577 
z
" clip-path="url(#p051e0d8a22)" style="fill: #ff6f61"/>
   </g>
   <g id="patch_87">
    <path d="M 252.244761 443.38577 
L 267.975935 443.38577 
L 267.975935 443.38577 
L 252.244761 443.38577 
z
" clip-path="url(#p051e0d8a22)" style="fill: #ff6f61"/>
   </g>
   <g id="patch_88">
    <path d="M 271.908728 443.38577 
L 287.639901 443.38577 
L 287.639901 443.38577 
L 271.908728 443.38577 
z
" clip-path="url(#p051e0d8a22)" style="fill: #ff6f61"/>
   </g>
   <g id="patch_89">
    <path d="M 291.572694 443.38577 
L 307.303868 443.38577 
L 307.303868 298.038361 
L 291.572694 298.038361 
z
" clip-path="url(#p051e0d8a22)" style="fill: #ff6f61"/>
   </g>
   <g id="patch_90">
    <path d="M 311.236661 443.38577 
L 326.967834 443.38577 
L 326.967834 407.790486 
L 311.236661 407.790486 
z
" clip-path="url(#p051e0d8a22)" style="fill: #ff6f61"/>
   </g>
   <g id="patch_91">
    <path d="M 330.900628 443.38577 
L 346.631801 443.38577 
L 346.631801 427.071265 
L 330.900628 427.071265 
z
" clip-path="url(#p051e0d8a22)" style="fill: #ff6f61"/>
   </g>
   <g id="patch_92">
    <path d="M 350.564594 443.38577 
L 366.295767 443.38577 
L 366.295767 443.38577 
L 350.564594 443.38577 
z
" clip-path="url(#p051e0d8a22)" style="fill: #ff6f61"/>
   </g>
   <g id="patch_93">
    <path d="M 370.228561 443.38577 
L 385.959734 443.38577 
L 385.959734 438.93636 
L 370.228561 438.93636 
z
" clip-path="url(#p051e0d8a22)" style="fill: #ff6f61"/>
   </g>
   <g id="patch_94">
    <path d="M 389.892527 443.38577 
L 405.623701 443.38577 
L 405.623701 443.38577 
L 389.892527 443.38577 
z
" clip-path="url(#p051e0d8a22)" style="fill: #ff6f61"/>
   </g>
   <g id="patch_95">
    <path d="M 409.556494 443.38577 
L 425.287667 443.38577 
L 425.287667 443.38577 
L 409.556494 443.38577 
z
" clip-path="url(#p051e0d8a22)" style="fill: #ff6f61"/>
   </g>
   <g id="patch_96">
    <path d="M 429.22046 443.38577 
L 444.951634 443.38577 
L 444.951634 443.38577 
L 429.22046 443.38577 
z
" clip-path="url(#p051e0d8a22)" style="fill: #ff6f61"/>
   </g>
   <g id="patch_97">
    <path d="M 448.884427 443.38577 
L 464.6156 443.38577 
L 464.6156 443.38577 
L 448.884427 443.38577 
z
" clip-path="url(#p051e0d8a22)" style="fill: #ff6f61"/>
   </g>
   <g id="patch_98">
    <path d="M 468.548394 443.38577 
L 484.279567 443.38577 
L 484.279567 443.38577 
L 468.548394 443.38577 
z
" clip-path="url(#p051e0d8a22)" style="fill: #ff6f61"/>
   </g>
   <g id="patch_99">
    <path d="M 488.21236 443.38577 
L 503.943533 443.38577 
L 503.943533 443.38577 
L 488.21236 443.38577 
z
" clip-path="url(#p051e0d8a22)" style="fill: #ff6f61"/>
   </g>
   <g id="patch_100">
    <path d="M 507.876327 443.38577 
L 523.6075 443.38577 
L 523.6075 443.38577 
L 507.876327 443.38577 
z
" clip-path="url(#p051e0d8a22)" style="fill: #ff6f61"/>
   </g>
   <g id="patch_101">
    <path d="M 527.540293 443.38577 
L 543.271467 443.38577 
L 543.271467 443.38577 
L 527.540293 443.38577 
z
" clip-path="url(#p051e0d8a22)" style="fill: #ff6f61"/>
   </g>
   <g id="patch_102">
    <path d="M 547.20426 443.38577 
L 562.935433 443.38577 
L 562.935433 443.38577 
L 547.20426 443.38577 
z
" clip-path="url(#p051e0d8a22)" style="fill: #ff6f61"/>
   </g>
   <g id="patch_103">
    <path d="M 566.868227 443.38577 
L 582.5994 443.38577 
L 582.5994 443.38577 
L 566.868227 443.38577 
z
" clip-path="url(#p051e0d8a22)" style="fill: #ff6f61"/>
   </g>
   <g id="matplotlib.axis_3">
    <g id="xtick_25">
     <g id="line2d_30">
      <g>
       <use xlink:href="#m87680f76cd" x="122.462582" y="443.38577" style="stroke: #000000; stroke-width: 0.8"/>
      </g>
     </g>
     <g id="text_34">
      <!-- 0 -->
      <g transform="translate(118.645082 459.503895) scale(0.12 -0.12)">
       <use xlink:href="#DejaVuSans-30"/>
      </g>
     </g>
    </g>
    <g id="xtick_26">
     <g id="line2d_31">
      <g>
       <use xlink:href="#m87680f76cd" x="142.126548" y="443.38577" style="stroke: #000000; stroke-width: 0.8"/>
      </g>
     </g>
     <g id="text_35">
      <!-- 1 -->
      <g transform="translate(138.309048 459.503895) scale(0.12 -0.12)">
       <use xlink:href="#DejaVuSans-31"/>
      </g>
     </g>
    </g>
    <g id="xtick_27">
     <g id="line2d_32">
      <g>
       <use xlink:href="#m87680f76cd" x="161.790515" y="443.38577" style="stroke: #000000; stroke-width: 0.8"/>
      </g>
     </g>
     <g id="text_36">
      <!-- 2 -->
      <g transform="translate(157.973015 459.503895) scale(0.12 -0.12)">
       <use xlink:href="#DejaVuSans-32"/>
      </g>
     </g>
    </g>
    <g id="xtick_28">
     <g id="line2d_33">
      <g>
       <use xlink:href="#m87680f76cd" x="181.454482" y="443.38577" style="stroke: #000000; stroke-width: 0.8"/>
      </g>
     </g>
     <g id="text_37">
      <!-- 3 -->
      <g transform="translate(177.636982 459.503895) scale(0.12 -0.12)">
       <use xlink:href="#DejaVuSans-33"/>
      </g>
     </g>
    </g>
    <g id="xtick_29">
     <g id="line2d_34">
      <g>
       <use xlink:href="#m87680f76cd" x="201.118448" y="443.38577" style="stroke: #000000; stroke-width: 0.8"/>
      </g>
     </g>
     <g id="text_38">
      <!-- 4 -->
      <g transform="translate(197.300948 459.503895) scale(0.12 -0.12)">
       <use xlink:href="#DejaVuSans-34"/>
      </g>
     </g>
    </g>
    <g id="xtick_30">
     <g id="line2d_35">
      <g>
       <use xlink:href="#m87680f76cd" x="220.782415" y="443.38577" style="stroke: #000000; stroke-width: 0.8"/>
      </g>
     </g>
     <g id="text_39">
      <!-- 5 -->
      <g transform="translate(216.964915 459.503895) scale(0.12 -0.12)">
       <use xlink:href="#DejaVuSans-35"/>
      </g>
     </g>
    </g>
    <g id="xtick_31">
     <g id="line2d_36">
      <g>
       <use xlink:href="#m87680f76cd" x="240.446381" y="443.38577" style="stroke: #000000; stroke-width: 0.8"/>
      </g>
     </g>
     <g id="text_40">
      <!-- 6 -->
      <g transform="translate(236.628881 459.503895) scale(0.12 -0.12)">
       <use xlink:href="#DejaVuSans-36"/>
      </g>
     </g>
    </g>
    <g id="xtick_32">
     <g id="line2d_37">
      <g>
       <use xlink:href="#m87680f76cd" x="260.110348" y="443.38577" style="stroke: #000000; stroke-width: 0.8"/>
      </g>
     </g>
     <g id="text_41">
      <!-- 7 -->
      <g transform="translate(256.292848 459.503895) scale(0.12 -0.12)">
       <use xlink:href="#DejaVuSans-37"/>
      </g>
     </g>
    </g>
    <g id="xtick_33">
     <g id="line2d_38">
      <g>
       <use xlink:href="#m87680f76cd" x="279.774314" y="443.38577" style="stroke: #000000; stroke-width: 0.8"/>
      </g>
     </g>
     <g id="text_42">
      <!-- 8 -->
      <g transform="translate(275.956814 459.503895) scale(0.12 -0.12)">
       <use xlink:href="#DejaVuSans-38"/>
      </g>
     </g>
    </g>
    <g id="xtick_34">
     <g id="line2d_39">
      <g>
       <use xlink:href="#m87680f76cd" x="299.438281" y="443.38577" style="stroke: #000000; stroke-width: 0.8"/>
      </g>
     </g>
     <g id="text_43">
      <!-- 9 -->
      <g transform="translate(295.620781 459.503895) scale(0.12 -0.12)">
       <use xlink:href="#DejaVuSans-39"/>
      </g>
     </g>
    </g>
    <g id="xtick_35">
     <g id="line2d_40">
      <g>
       <use xlink:href="#m87680f76cd" x="319.102248" y="443.38577" style="stroke: #000000; stroke-width: 0.8"/>
      </g>
     </g>
     <g id="text_44">
      <!-- 10 -->
      <g transform="translate(311.467248 459.503895) scale(0.12 -0.12)">
       <use xlink:href="#DejaVuSans-31"/>
       <use xlink:href="#DejaVuSans-30" x="63.623047"/>
      </g>
     </g>
    </g>
    <g id="xtick_36">
     <g id="line2d_41">
      <g>
       <use xlink:href="#m87680f76cd" x="338.766214" y="443.38577" style="stroke: #000000; stroke-width: 0.8"/>
      </g>
     </g>
     <g id="text_45">
      <!-- 11 -->
      <g transform="translate(331.131214 459.503895) scale(0.12 -0.12)">
       <use xlink:href="#DejaVuSans-31"/>
       <use xlink:href="#DejaVuSans-31" x="63.623047"/>
      </g>
     </g>
    </g>
    <g id="xtick_37">
     <g id="line2d_42">
      <g>
       <use xlink:href="#m87680f76cd" x="358.430181" y="443.38577" style="stroke: #000000; stroke-width: 0.8"/>
      </g>
     </g>
     <g id="text_46">
      <!-- 12 -->
      <g transform="translate(350.795181 459.503895) scale(0.12 -0.12)">
       <use xlink:href="#DejaVuSans-31"/>
       <use xlink:href="#DejaVuSans-32" x="63.623047"/>
      </g>
     </g>
    </g>
    <g id="xtick_38">
     <g id="line2d_43">
      <g>
       <use xlink:href="#m87680f76cd" x="378.094147" y="443.38577" style="stroke: #000000; stroke-width: 0.8"/>
      </g>
     </g>
     <g id="text_47">
      <!-- 13 -->
      <g transform="translate(370.459147 459.503895) scale(0.12 -0.12)">
       <use xlink:href="#DejaVuSans-31"/>
       <use xlink:href="#DejaVuSans-33" x="63.623047"/>
      </g>
     </g>
    </g>
    <g id="xtick_39">
     <g id="line2d_44">
      <g>
       <use xlink:href="#m87680f76cd" x="397.758114" y="443.38577" style="stroke: #000000; stroke-width: 0.8"/>
      </g>
     </g>
     <g id="text_48">
      <!-- 14 -->
      <g transform="translate(390.123114 459.503895) scale(0.12 -0.12)">
       <use xlink:href="#DejaVuSans-31"/>
       <use xlink:href="#DejaVuSans-34" x="63.623047"/>
      </g>
     </g>
    </g>
    <g id="xtick_40">
     <g id="line2d_45">
      <g>
       <use xlink:href="#m87680f76cd" x="417.422081" y="443.38577" style="stroke: #000000; stroke-width: 0.8"/>
      </g>
     </g>
     <g id="text_49">
      <!-- 15 -->
      <g transform="translate(409.787081 459.503895) scale(0.12 -0.12)">
       <use xlink:href="#DejaVuSans-31"/>
       <use xlink:href="#DejaVuSans-35" x="63.623047"/>
      </g>
     </g>
    </g>
    <g id="xtick_41">
     <g id="line2d_46">
      <g>
       <use xlink:href="#m87680f76cd" x="437.086047" y="443.38577" style="stroke: #000000; stroke-width: 0.8"/>
      </g>
     </g>
     <g id="text_50">
      <!-- 16 -->
      <g transform="translate(429.451047 459.503895) scale(0.12 -0.12)">
       <use xlink:href="#DejaVuSans-31"/>
       <use xlink:href="#DejaVuSans-36" x="63.623047"/>
      </g>
     </g>
    </g>
    <g id="xtick_42">
     <g id="line2d_47">
      <g>
       <use xlink:href="#m87680f76cd" x="456.750014" y="443.38577" style="stroke: #000000; stroke-width: 0.8"/>
      </g>
     </g>
     <g id="text_51">
      <!-- 17 -->
      <g transform="translate(449.115014 459.503895) scale(0.12 -0.12)">
       <use xlink:href="#DejaVuSans-31"/>
       <use xlink:href="#DejaVuSans-37" x="63.623047"/>
      </g>
     </g>
    </g>
    <g id="xtick_43">
     <g id="line2d_48">
      <g>
       <use xlink:href="#m87680f76cd" x="476.41398" y="443.38577" style="stroke: #000000; stroke-width: 0.8"/>
      </g>
     </g>
     <g id="text_52">
      <!-- 18 -->
      <g transform="translate(468.77898 459.503895) scale(0.12 -0.12)">
       <use xlink:href="#DejaVuSans-31"/>
       <use xlink:href="#DejaVuSans-38" x="63.623047"/>
      </g>
     </g>
    </g>
    <g id="xtick_44">
     <g id="line2d_49">
      <g>
       <use xlink:href="#m87680f76cd" x="496.077947" y="443.38577" style="stroke: #000000; stroke-width: 0.8"/>
      </g>
     </g>
     <g id="text_53">
      <!-- 19 -->
      <g transform="translate(488.442947 459.503895) scale(0.12 -0.12)">
       <use xlink:href="#DejaVuSans-31"/>
       <use xlink:href="#DejaVuSans-39" x="63.623047"/>
      </g>
     </g>
    </g>
    <g id="xtick_45">
     <g id="line2d_50">
      <g>
       <use xlink:href="#m87680f76cd" x="515.741913" y="443.38577" style="stroke: #000000; stroke-width: 0.8"/>
      </g>
     </g>
     <g id="text_54">
      <!-- 20 -->
      <g transform="translate(508.106913 459.503895) scale(0.12 -0.12)">
       <use xlink:href="#DejaVuSans-32"/>
       <use xlink:href="#DejaVuSans-30" x="63.623047"/>
      </g>
     </g>
    </g>
    <g id="xtick_46">
     <g id="line2d_51">
      <g>
       <use xlink:href="#m87680f76cd" x="535.40588" y="443.38577" style="stroke: #000000; stroke-width: 0.8"/>
      </g>
     </g>
     <g id="text_55">
      <!-- 21 -->
      <g transform="translate(527.77088 459.503895) scale(0.12 -0.12)">
       <use xlink:href="#DejaVuSans-32"/>
       <use xlink:href="#DejaVuSans-31" x="63.623047"/>
      </g>
     </g>
    </g>
    <g id="xtick_47">
     <g id="line2d_52">
      <g>
       <use xlink:href="#m87680f76cd" x="555.069847" y="443.38577" style="stroke: #000000; stroke-width: 0.8"/>
      </g>
     </g>
     <g id="text_56">
      <!-- 22 -->
      <g transform="translate(547.434847 459.503895) scale(0.12 -0.12)">
       <use xlink:href="#DejaVuSans-32"/>
       <use xlink:href="#DejaVuSans-32" x="63.623047"/>
      </g>
     </g>
    </g>
    <g id="xtick_48">
     <g id="line2d_53">
      <g>
       <use xlink:href="#m87680f76cd" x="574.733813" y="443.38577" style="stroke: #000000; stroke-width: 0.8"/>
      </g>
     </g>
     <g id="text_57">
      <!-- 23 -->
      <g transform="translate(567.098813 459.503895) scale(0.12 -0.12)">
       <use xlink:href="#DejaVuSans-32"/>
       <use xlink:href="#DejaVuSans-33" x="63.623047"/>
      </g>
     </g>
    </g>
   </g>
   <g id="matplotlib.axis_4">
    <g id="ytick_6">
     <g id="line2d_54">
      <g>
       <use xlink:href="#m0c00e0557d" x="91.196875" y="443.38577" style="stroke: #000000; stroke-width: 0.8"/>
      </g>
     </g>
     <g id="text_58">
      <!-- 0 -->
      <g transform="translate(76.561875 447.944833) scale(0.12 -0.12)">
       <use xlink:href="#DejaVuSans-30"/>
      </g>
     </g>
    </g>
    <g id="ytick_7">
     <g id="line2d_55">
      <g>
       <use xlink:href="#m0c00e0557d" x="91.196875" y="406.307349" style="stroke: #000000; stroke-width: 0.8"/>
      </g>
     </g>
     <g id="text_59">
      <!-- 50 -->
      <g transform="translate(68.926875 410.866412) scale(0.12 -0.12)">
       <use xlink:href="#DejaVuSans-35"/>
       <use xlink:href="#DejaVuSans-30" x="63.623047"/>
      </g>
     </g>
    </g>
    <g id="ytick_8">
     <g id="line2d_56">
      <g>
       <use xlink:href="#m0c00e0557d" x="91.196875" y="369.228929" style="stroke: #000000; stroke-width: 0.8"/>
      </g>
     </g>
     <g id="text_60">
      <!-- 100 -->
      <g transform="translate(61.291875 373.787991) scale(0.12 -0.12)">
       <use xlink:href="#DejaVuSans-31"/>
       <use xlink:href="#DejaVuSans-30" x="63.623047"/>
       <use xlink:href="#DejaVuSans-30" x="127.246094"/>
      </g>
     </g>
    </g>
    <g id="ytick_9">
     <g id="line2d_57">
      <g>
       <use xlink:href="#m0c00e0557d" x="91.196875" y="332.150508" style="stroke: #000000; stroke-width: 0.8"/>
      </g>
     </g>
     <g id="text_61">
      <!-- 150 -->
      <g transform="translate(61.291875 336.709571) scale(0.12 -0.12)">
       <use xlink:href="#DejaVuSans-31"/>
       <use xlink:href="#DejaVuSans-35" x="63.623047"/>
       <use xlink:href="#DejaVuSans-30" x="127.246094"/>
      </g>
     </g>
    </g>
    <g id="ytick_10">
     <g id="line2d_58">
      <g>
       <use xlink:href="#m0c00e0557d" x="91.196875" y="295.072088" style="stroke: #000000; stroke-width: 0.8"/>
      </g>
     </g>
     <g id="text_62">
      <!-- 200 -->
      <g transform="translate(61.291875 299.63115) scale(0.12 -0.12)">
       <use xlink:href="#DejaVuSans-32"/>
       <use xlink:href="#DejaVuSans-30" x="63.623047"/>
       <use xlink:href="#DejaVuSans-30" x="127.246094"/>
      </g>
     </g>
    </g>
    <g id="text_63">
     <!-- Step Count -->
     <g transform="translate(52.716563 421.020854) rotate(-90) scale(0.22 -0.22)">
      <use xlink:href="#DejaVuSans-53"/>
      <use xlink:href="#DejaVuSans-74" x="63.476562"/>
      <use xlink:href="#DejaVuSans-65" x="102.685547"/>
      <use xlink:href="#DejaVuSans-70" x="164.208984"/>
      <use xlink:href="#DejaVuSans-20" x="227.685547"/>
      <use xlink:href="#DejaVuSans-43" x="259.472656"/>
      <use xlink:href="#DejaVuSans-6f" x="329.296875"/>
      <use xlink:href="#DejaVuSans-75" x="390.478516"/>
      <use xlink:href="#DejaVuSans-6e" x="453.857422"/>
      <use xlink:href="#DejaVuSans-74" x="517.236328"/>
     </g>
    </g>
   </g>
   <g id="patch_104">
    <path d="M 91.196875 443.38577 
L 91.196875 276.23625 
" style="fill: none; stroke: #000000; stroke-width: 0.8; stroke-linejoin: miter; stroke-linecap: square"/>
   </g>
   <g id="patch_105">
    <path d="M 605.99952 443.38577 
L 605.99952 276.23625 
" style="fill: none; stroke: #000000; stroke-width: 0.8; stroke-linejoin: miter; stroke-linecap: square"/>
   </g>
   <g id="patch_106">
    <path d="M 91.196875 443.38577 
L 605.99952 443.38577 
" style="fill: none; stroke: #000000; stroke-width: 0.8; stroke-linejoin: miter; stroke-linecap: square"/>
   </g>
   <g id="patch_107">
    <path d="M 91.196875 276.23625 
L 605.99952 276.23625 
" style="fill: none; stroke: #000000; stroke-width: 0.8; stroke-linejoin: miter; stroke-linecap: square"/>
   </g>
   <g id="text_64">
    <!-- 196.0 -->
    <g transform="translate(282.261406 295.542736) scale(0.12 -0.12)">
     <use xlink:href="#DejaVuSans-31"/>
     <use xlink:href="#DejaVuSans-39" x="63.623047"/>
     <use xlink:href="#DejaVuSans-36" x="127.246094"/>
     <use xlink:href="#DejaVuSans-2e" x="190.869141"/>
     <use xlink:href="#DejaVuSans-30" x="222.65625"/>
    </g>
   </g>
   <g id="text_65">
    <!-- 48.0 -->
    <g transform="translate(305.742873 405.294861) scale(0.12 -0.12)">
     <use xlink:href="#DejaVuSans-34"/>
     <use xlink:href="#DejaVuSans-38" x="63.623047"/>
     <use xlink:href="#DejaVuSans-2e" x="127.246094"/>
     <use xlink:href="#DejaVuSans-30" x="159.033203"/>
    </g>
   </g>
   <g id="text_66">
    <!-- 22.0 -->
    <g transform="translate(325.406839 424.57564) scale(0.12 -0.12)">
     <use xlink:href="#DejaVuSans-32"/>
     <use xlink:href="#DejaVuSans-32" x="63.623047"/>
     <use xlink:href="#DejaVuSans-2e" x="127.246094"/>
     <use xlink:href="#DejaVuSans-30" x="159.033203"/>
    </g>
   </g>
   <g id="text_67">
    <!-- 6.0 -->
    <g transform="translate(368.552272 436.440735) scale(0.12 -0.12)">
     <use xlink:href="#DejaVuSans-36"/>
     <use xlink:href="#DejaVuSans-2e" x="63.623047"/>
     <use xlink:href="#DejaVuSans-30" x="95.410156"/>
    </g>
   </g>
   <g id="text_68">
    <!-- 2024-12-12 -->
    <g transform="translate(271.843198 270.23625) scale(0.24 -0.24)">
     <use xlink:href="#DejaVuSans-Bold-32"/>
     <use xlink:href="#DejaVuSans-Bold-30" x="69.580078"/>
     <use xlink:href="#DejaVuSans-Bold-32" x="139.160156"/>
     <use xlink:href="#DejaVuSans-Bold-34" x="208.740234"/>
     <use xlink:href="#DejaVuSans-Bold-2d" x="278.320312"/>
     <use xlink:href="#DejaVuSans-Bold-31" x="319.824219"/>
     <use xlink:href="#DejaVuSans-Bold-32" x="389.404297"/>
     <use xlink:href="#DejaVuSans-Bold-2d" x="458.984375"/>
     <use xlink:href="#DejaVuSans-Bold-31" x="500.488281"/>
     <use xlink:href="#DejaVuSans-Bold-32" x="570.068359"/>
    </g>
   </g>
  </g>
 </g>
 <defs>
  <clipPath id="pc1f80bf913">
   <rect x="91.196875" y="60.23625" width="514.802645" height="167.14952"/>
  </clipPath>
  <clipPath id="p051e0d8a22">
   <rect x="91.196875" y="276.23625" width="514.802645" height="167.14952"/>
  </clipPath>
 </defs>
</svg>
